<svg id="Layer_1" enable-background="new 0 0 512 512" height="512" viewBox="0 0 512 512" width="512" xmlns="http://www.w3.org/2000/svg"><g><g><path d="m358.45 65.76v91l-34.42 9.07-155.38 40.93v-91l155.38-40.93z" fill="#10e881"/></g><g><path d="m358.45 65.76v91l-34.42 9.07v-91z" fill="#00c18e"/></g><g><path d="m358.45 95.6v29.79l-34.42 9.07-155.38 40.93v-29.79l155.38-40.93z" fill="#f9ef63"/></g><g><path d="m358.45 125.39v31.37l-34.42 9.07-155.38 40.93v-31.37l155.38-40.93z" fill="#ff6536"/></g><g><path d="m358.45 125.39v31.37l-34.42 9.07v-31.37z" fill="#f71d00"/></g><g><path d="m358.45 95.6v29.79l-34.42 9.07v-29.79z" fill="#f4dd45"/></g><g><g><path d="m168.65 400.35c0 25.34-20.55 45.89-45.89 45.89-5.73 0-11.22-1.05-16.28-2.98-17.31-6.56-29.61-23.3-29.61-42.91s12.3-36.35 29.61-42.91c5.06-1.93 10.55-2.98 16.28-2.98 25.34 0 45.89 20.55 45.89 45.89z" fill="#80fcff"/></g><g><path d="m168.65 400.35c0 25.34-20.55 45.89-45.89 45.89-5.73 0-11.22-1.05-16.28-2.98 17.31-6.56 29.61-23.3 29.61-42.91s-12.3-36.35-29.61-42.91c5.06-1.93 10.55-2.98 16.28-2.98 25.34 0 45.89 20.55 45.89 45.89z" fill="#50deff"/></g></g><g><g><path d="m358.446 350.35c0 25.34-20.55 45.89-45.89 45.89-5.73 0-11.22-1.05-16.28-2.98-17.31-6.56-29.61-23.3-29.61-42.91s12.3-36.35 29.61-42.91c5.06-1.93 10.55-2.98 16.28-2.98 25.34 0 45.89 20.55 45.89 45.89z" fill="#80fcff"/></g><g><path d="m358.446 350.35c0 25.34-20.55 45.89-45.89 45.89-5.73 0-11.22-1.05-16.28-2.98 17.31-6.56 29.61-23.3 29.61-42.91s-12.3-36.35-29.61-42.91c5.06-1.93 10.55-2.98 16.28-2.98 25.34 0 45.89 20.55 45.89 45.89z" fill="#50deff"/></g></g></g><g><g><path d="m43.937 213.345v-63.506l43.763-14.889v58.403c0 3.826-3.126 6.938-6.968 6.938s-6.968-3.112-6.968-6.938c0-4.142-3.358-7.5-7.5-7.5s-7.5 3.358-7.5 7.5c0 12.097 9.855 21.938 21.968 21.938s21.968-9.841 21.968-21.938v-68.876c0-2.419-1.167-4.689-3.133-6.098-1.967-1.409-4.494-1.782-6.782-1.002l-58.763 19.992c-3.04 1.034-5.084 3.889-5.084 7.1v68.876c0 3.826-3.126 6.938-6.968 6.938s-6.97-3.112-6.97-6.938c0-4.142-3.358-7.5-7.5-7.5s-7.5 3.358-7.5 7.5c0 12.097 9.855 21.938 21.968 21.938s21.969-9.841 21.969-21.938z"/></g><g><path d="m77.545 290.758c0 4.142 3.358 7.5 7.5 7.5s7.5-3.358 7.5-7.5v-9.061h9.096c4.142 0 7.5-3.358 7.5-7.5s-3.358-7.5-7.5-7.5h-9.096v-9.062c0-4.142-3.358-7.5-7.5-7.5s-7.5 3.358-7.5 7.5v9.062h-9.095c-4.142 0-7.5 3.358-7.5 7.5s3.358 7.5 7.5 7.5h9.096v9.061z"/></g><g><path d="m54.955 326.288h-9.096v-9.061c0-4.142-3.358-7.5-7.5-7.5s-7.5 3.358-7.5 7.5v9.061h-9.096c-4.142 0-7.5 3.358-7.5 7.5s3.358 7.5 7.5 7.5h9.096v9.062c0 4.142 3.358 7.5 7.5 7.5s7.5-3.358 7.5-7.5v-9.062h9.096c4.142 0 7.5-3.358 7.5-7.5s-3.358-7.5-7.5-7.5z"/></g><g><path d="m508.867 164.945c-1.968-1.409-4.494-1.782-6.782-1.002l-58.763 19.992c-3.04 1.034-5.084 3.889-5.084 7.1v68.876c0 3.826-3.126 6.938-6.968 6.938s-6.968-3.112-6.968-6.938c0-4.142-3.358-7.5-7.5-7.5s-7.5 3.358-7.5 7.5c0 12.097 9.855 21.938 21.968 21.938s21.968-9.841 21.968-21.938v-63.506l43.762-14.889v58.403c0 3.826-3.126 6.938-6.968 6.938s-6.968-3.112-6.968-6.938c0-4.142-3.358-7.5-7.5-7.5s-7.5 3.358-7.5 7.5c0 12.097 9.855 21.938 21.968 21.938s21.968-9.841 21.968-21.938v-68.876c0-2.419-1.167-4.69-3.133-6.098z"/></g><g><path d="m504.5 307.118h-9.096v-9.062c0-4.142-3.358-7.5-7.5-7.5s-7.5 3.358-7.5 7.5v9.062h-9.096c-4.142 0-7.5 3.358-7.5 7.5s3.358 7.5 7.5 7.5h9.096v9.061c0 4.142 3.358 7.5 7.5 7.5s7.5-3.358 7.5-7.5v-9.061h9.096c4.142 0 7.5-3.358 7.5-7.5s-3.358-7.5-7.5-7.5z"/></g><g><path d="m419.206 148.538v9.062c0 4.142 3.358 7.5 7.5 7.5s7.5-3.358 7.5-7.5v-9.062h9.096c4.142 0 7.5-3.358 7.5-7.5s-3.358-7.5-7.5-7.5h-9.096v-9.062c0-4.142-3.358-7.5-7.5-7.5s-7.5 3.358-7.5 7.5v9.062h-9.096c-4.142 0-7.5 3.358-7.5 7.5s3.358 7.5 7.5 7.5z"/></g><g><path d="m363.024 59.823c-1.842-1.419-4.238-1.904-6.489-1.312l-123.298 32.481c-4.005 1.055-6.397 5.158-5.342 9.163s5.159 6.399 9.163 5.342l113.888-30.002v14.325l-174.8 46.049v-14.325l28.511-7.511c4.005-1.055 6.397-5.158 5.342-9.163s-5.157-6.398-9.163-5.342l-34.1 8.983c-3.294.868-5.589 3.846-5.589 7.252v247.52c-9.714-10.057-23.333-16.32-38.387-16.32-29.438 0-53.386 23.949-53.386 53.387 0 5.962.978 11.819 2.905 17.409 1.351 3.916 5.62 5.997 9.535 4.646 3.916-1.35 5.996-5.619 4.646-9.535-1.384-4.013-2.085-8.225-2.085-12.519 0-21.167 17.22-38.387 38.386-38.387 21.167 0 38.387 17.22 38.387 38.387s-17.22 38.387-38.387 38.387c-6.811 0-13.499-1.805-19.338-5.219-3.575-2.089-8.168-.885-10.26 2.69-2.09 3.576-.886 8.169 2.69 10.26 8.135 4.755 17.439 7.269 26.909 7.269 29.438 0 53.387-23.949 53.387-53.387v-187.808l174.8-46.049v146.789c-9.714-10.057-23.333-16.32-38.387-16.32-29.438 0-53.387 23.949-53.387 53.387s23.949 53.387 53.387 53.387c9.469 0 18.774-2.514 26.909-7.269 3.576-2.091 4.78-6.684 2.689-10.26-2.089-3.576-6.684-4.778-10.26-2.69-5.84 3.414-12.527 5.219-19.338 5.219-21.167 0-38.387-17.22-38.387-38.387s17.22-38.387 38.387-38.387 38.387 17.22 38.387 38.387c0 4.293-.702 8.505-2.086 12.519-1.35 3.916.729 8.185 4.646 9.535 3.916 1.352 8.185-.729 9.535-4.646 1.928-5.591 2.905-11.448 2.905-17.409v-284.586c-.003-2.326-1.082-4.52-2.925-5.94zm-12.078 45.508v14.283l-174.8 46.049v-14.283zm-174.8 91.701v-15.858l174.8-46.049v15.858z"/></g></g></svg>